<svg fill="none" version="1.1" viewBox="0 0 108 37" xmlns="http://www.w3.org/2000/svg">
 <g fill="#fff">
  <path d="m56.925 21.659c0 0.7398-0.1259 1.4166-0.3777 2.0305-0.2361 0.6138-0.606 1.1411-1.1097 1.5818-0.4879 0.4407-1.1175 0.787-1.8888 1.0389-0.7712 0.2361-1.6841 0.3541-2.7387 0.3541-1.212 0-2.3216-0.2361-3.329-0.7083-0.9916-0.4879-1.8416-1.1411-2.5499-1.9596l1.7708-1.7235c0.5509 0.5981 1.2041 1.0782 1.9596 1.4402 0.7712 0.3463 1.5504 0.5194 2.3374 0.5194 2.2822 0 3.4234-0.8027 3.4234-2.4082 0-0.3148-0.063-0.5981-0.1889-0.85-0.1259-0.2518-0.3384-0.48-0.6375-0.6846-0.299-0.2204-0.6846-0.425-1.1568-0.6139s-1.0546-0.3856-1.7472-0.5902c-0.8814-0.2519-1.6448-0.5116-2.2901-0.7792-0.6454-0.2675-1.1805-0.5745-1.6055-0.9208-0.425-0.362-0.7476-0.7948-0.968-1.2985-0.2046-0.5037-0.3069-1.1254-0.3069-1.8652 0-0.7083 0.1416-1.3457 0.425-1.9124 0.2833-0.5823 0.6689-1.0703 1.1568-1.4638 0.488-0.3935 1.0625-0.6925 1.7236-0.89714 0.6768-0.22036 1.3929-0.33054 2.1485-0.33054 1.1332 0 2.1327 0.19675 2.9984 0.59028 0.8657 0.3935 1.6684 0.9444 2.4082 1.6527l-1.7471 1.7707c-0.5194-0.5352-1.0861-0.9287-1.6999-1.1805-0.6139-0.2676-1.3301-0.4014-2.1485-0.4014-0.9759 0-1.6842 0.2046-2.1249 0.6139-0.425 0.4092-0.6375 0.8893-0.6375 1.4402 0 0.2833 0.0551 0.543 0.1653 0.7791 0.1102 0.2204 0.2991 0.4329 0.5666 0.6375 0.2676 0.1889 0.6375 0.3777 1.1097 0.5666s1.0624 0.3856 1.7707 0.5903c0.8185 0.2518 1.5504 0.5115 2.1957 0.7791 0.6611 0.2676 1.2199 0.5902 1.6763 0.968 0.4565 0.3777 0.8028 0.8263 1.0389 1.3457 0.2518 0.5195 0.3777 1.1491 0.3777 1.8888z"/>
  <path d="m67.261 17.574c-0.5037-0.5194-0.9995-0.8971-1.4875-1.1332-0.4722-0.2519-0.9837-0.3778-1.5346-0.3778-0.8972 0-1.6055 0.3699-2.1249 1.1097-0.5194 0.724-0.7791 1.7235-0.7791 2.9984 0 0.6139 0.063 1.1805 0.1889 1.6999 0.1259 0.5037 0.3148 0.9444 0.5666 1.3222 0.2518 0.362 0.5588 0.6453 0.9208 0.8499 0.3777 0.2046 0.8106 0.3069 1.2985 0.3069 0.5824 0 1.0703-0.1259 1.4638-0.3777 0.4093-0.2676 0.8579-0.6532 1.3458-1.1569l1.5582 1.5346c-0.2361 0.3148-0.4958 0.6139-0.7791 0.8972-0.2833 0.2676-0.606 0.5116-0.968 0.7319-0.3463 0.2046-0.7398 0.3699-1.1805 0.4958s-0.9444 0.1889-1.511 0.1889c-0.7555 0-1.4638-0.1495-2.1249-0.4486-0.6453-0.3148-1.212-0.7476-1.6999-1.2985-0.4722-0.5667-0.8499-1.2435-1.1333-2.0305-0.2675-0.787-0.4013-1.6684-0.4013-2.6443 0-1.0231 0.1416-1.936 0.425-2.7387 0.2833-0.8027 0.6689-1.4796 1.1568-2.0304 0.488-0.5667 1.0625-0.9917 1.7235-1.275 0.6611-0.299 1.3694-0.4486 2.1249-0.4486 0.9129 0 1.7236 0.181 2.4318 0.5431 0.7241 0.3462 1.3773 0.8657 1.9597 1.5582l-1.4402 1.7235z"/>
  <path d="m81.294 20.148c0 1.0231-0.1416 1.9439-0.4249 2.7623-0.2834 0.8028-0.6769 1.4875-1.1805 2.0541-0.5037 0.5509-1.094 0.9759-1.7708 1.2749-0.6768 0.2833-1.4166 0.425-2.2193 0.425-0.787 0-1.511-0.1495-2.1721-0.4486-0.6611-0.3148-1.2356-0.7555-1.7235-1.3221-0.4879-0.5667-0.8736-1.2435-1.1569-2.0305-0.2676-0.787-0.4014-1.6684-0.4014-2.6443 0-1.0073 0.1417-1.9124 0.425-2.7151s0.669-1.4796 1.1569-2.0304c0.5037-0.5667 1.086-0.9917 1.7471-1.275 0.6768-0.299 1.4087-0.4486 2.1957-0.4486s1.5189 0.1574 2.1957 0.4722c0.6769 0.2991 1.2592 0.7241 1.7472 1.275 0.5037 0.5509 0.8893 1.2277 1.1569 2.0304 0.2833 0.787 0.4249 1.6606 0.4249 2.6207zm-2.4554 0.0708c0-1.2749-0.2833-2.2823-0.8499-3.022-0.5509-0.7555-1.3222-1.1333-2.3138-1.1333-0.9287 0-1.6606 0.3778-2.1957 1.1333-0.5194 0.7397-0.7791 1.7235-0.7791 2.9512 0 1.3694 0.2833 2.4161 0.8499 3.1401 0.5667 0.7083 1.3143 1.0624 2.2429 1.0624 0.4565 0 0.8736-0.1101 1.2514-0.3305 0.3777-0.2204 0.7004-0.5115 0.968-0.8736 0.2675-0.3777 0.4722-0.8184 0.6138-1.3221 0.1417-0.5037 0.2125-1.0388 0.2125-1.6055z"/>
  <path d="m94.135 20.408c0 1.0703-0.1338 1.999-0.4014 2.786-0.2675 0.7712-0.6296 1.4166-1.086 1.936-0.4407 0.5194-0.9601 0.905-1.5583 1.1568-0.5823 0.2519-1.1962 0.3778-1.8415 0.3778-0.6296 0-1.2199-0.1417-1.7708-0.425s-0.9994-0.6138-1.3457-0.9916v4.4623l-2.4082 1.2513v-16.952h2.4082v1.1805c0.4564-0.4092 0.9444-0.7476 1.4638-1.0152 0.5194-0.2833 1.1096-0.425 1.7707-0.425s1.2828 0.126 1.8652 0.3778 1.086 0.6453 1.511 1.1805c0.4407 0.5351 0.7791 1.2277 1.0152 2.0776 0.2519 0.8343 0.3778 1.8416 0.3778 3.0221zm-2.4318 0.0708c0-1.574-0.244-2.7151-0.7319-3.4234-0.4722-0.7083-1.1569-1.0624-2.0541-1.0624-0.5823 0-1.1175 0.1652-1.6054 0.4958-0.488 0.3148-0.8893 0.6768-1.2041 1.086v5.2178c0.1416 0.1889 0.3148 0.3778 0.5194 0.5666 0.2046 0.1889 0.4328 0.362 0.6847 0.5194 0.2518 0.1574 0.5194 0.2912 0.8027 0.4014 0.2833 0.0945 0.5824 0.1417 0.8972 0.1417 0.8814 0 1.5503-0.3227 2.0068-0.968 0.4565-0.6611 0.6847-1.6527 0.6847-2.9749z"/>
  <path d="m106.67 19.959c0 0.2204-8e-3 0.4329-0.023 0.6375-0.016 0.1889-0.032 0.3463-0.047 0.4722h-8.1931c0.063 0.5981 0.1889 1.1096 0.3778 1.5346 0.1888 0.425 0.4249 0.7791 0.7083 1.0625 0.2833 0.2675 0.598 0.4722 0.944 0.6138 0.347 0.1259 0.709 0.1889 1.086 0.1889 0.52 0 0.992-0.0866 1.417-0.2597 0.441-0.1732 0.866-0.4171 1.275-0.7319l1.44 1.5582c-0.551 0.5194-1.165 0.9208-1.841 1.2041-0.677 0.2833-1.488 0.425-2.432 0.425-0.724 0-1.4168-0.1417-2.0779-0.425-0.6454-0.2833-1.212-0.7004-1.6999-1.2513-0.488-0.5509-0.8736-1.2277-1.1569-2.0304-0.2833-0.8028-0.425-1.7157-0.425-2.7388 0-1.0545 0.1338-1.9832 0.4014-2.7859 0.2676-0.8028 0.6375-1.4717 1.1096-2.0069 0.4722-0.5509 1.0389-0.968 1.7-1.2513 0.6768-0.2833 1.4167-0.425 2.2197-0.425 0.881 0 1.644 0.1653 2.29 0.4958 0.661 0.3306 1.204 0.7792 1.629 1.3458 0.441 0.5666 0.763 1.2277 0.968 1.9832 0.22 0.7555 0.33 1.5504 0.33 2.3846zm-2.455-0.8972c-0.032-0.4249-0.11-0.8263-0.236-1.2041-0.11-0.3777-0.283-0.7082-0.52-0.9916-0.236-0.2833-0.535-0.5036-0.897-0.661-0.346-0.1732-0.771-0.2597-1.275-0.2597-0.818 0-1.4714 0.2754-1.9593 0.8263-0.4722 0.5351-0.7634 1.2985-0.8736 2.2901h5.7609z"/>
  <path d="m19.632 36.625c6.3512 0 18.476-7.9803 18.476-17.824s-1.7321-17.824-18.476-17.824c-10.204 0-19.631 5.1952-19.631 15.039 0 9.8441 9.4269 20.609 19.631 20.609zm-6.0545-20.934c0 0.6833-0.5539 1.2372-1.2372 1.2372s-1.2372-0.5539-1.2372-1.2372v-4.736c0-0.801 0.6492-1.4502 1.4502-1.4502h4.736c0.6833 0 1.2372 0.55395 1.2372 1.2372s-0.5539 1.2372-1.2372 1.2372h-2.2615c-0.801 0-1.4503 0.6493-1.4503 1.4503v2.2615zm13.397-6.1862c0.8009 0 1.4502 0.64925 1.4502 1.4502v4.736c0 0.6833-0.5539 1.2372-1.2372 1.2372s-1.2373-0.5539-1.2373-1.2372v-2.2615c0-0.801-0.6493-1.4503-1.4502-1.4503h-2.2615c-0.6833 0-1.2373-0.5539-1.2373-1.2372s0.554-1.2372 1.2373-1.2372h4.736zm0.213 9.898c0.6833 0 1.2372 0.554 1.2372 1.2373v4.736c0 0.8009-0.6493 1.4502-1.4502 1.4502h-4.736c-0.6833 0-1.2373-0.5539-1.2373-1.2372s0.554-1.2373 1.2373-1.2373h2.2615c0.8009 0 1.4502-0.6493 1.4502-1.4502v-2.2615c0-0.6833 0.554-1.2373 1.2373-1.2373zm-14.847 0c0.6833 0 1.2372 0.554 1.2372 1.2373v2.2615c0 0.8009 0.6493 1.4502 1.4503 1.4502h2.2615c0.6833 0 1.2372 0.554 1.2372 1.2373s-0.5539 1.2372-1.2372 1.2372h-4.736c-0.801 0-1.4502-0.6493-1.4502-1.4502v-4.736c0-0.6833 0.5539-1.2373 1.2372-1.2373z" clip-rule="evenodd" fill-rule="evenodd"/>
 </g>
</svg>
